<svg width="100" height="25" viewBox="0 0 100 25" fill="none" xmlns="http://www.w3.org/2000/svg">
<path d="M8.61812 9.13023C8.43347 9.13023 8.27519 9.19341 8.14329 9.31978C8.00613 9.44615 7.93754 9.60032 7.93754 9.78228V11.9735C7.19891 12.5346 6.36269 12.8151 5.42887 12.8151C4.30511 12.8151 3.34489 12.4335 2.54825 11.6702C1.75159 10.907 1.35326 9.987 1.35326 8.91036C1.35326 7.83877 1.75159 6.92135 2.54825 6.15809C3.34489 5.39483 4.30511 5.01321 5.42887 5.01321C6.40489 5.01321 7.2675 5.30891 8.01668 5.90029C8.15912 6.01655 8.32532 6.06711 8.51525 6.05194C8.6999 6.03172 8.8529 5.95337 8.97425 5.81689C9.09031 5.68042 9.14044 5.52119 9.1246 5.33924C9.1035 5.16231 9.02173 5.01573 8.87929 4.89947C7.87687 4.11095 6.72673 3.71667 5.42887 3.71667C3.93052 3.71667 2.65112 4.22467 1.59067 5.24067C0.530224 6.25666 0 7.47989 0 8.91036C0 10.3459 0.530224 11.5716 1.59067 12.5876C2.65112 13.6036 3.93052 14.1116 5.42887 14.1116C6.82697 14.1116 8.04306 13.6618 9.07713 12.762C9.22485 12.6306 9.2987 12.4688 9.2987 12.2768V9.78228C9.2987 9.60032 9.23276 9.44615 9.10086 9.31978C8.96896 9.19341 8.80805 9.13023 8.61812 9.13023ZM16.4323 3.86832C16.2423 3.86832 16.0814 3.9315 15.9495 4.05787C15.8176 4.18424 15.7516 4.33588 15.7516 4.51279V13.3231C15.7516 13.5051 15.8176 13.6592 15.9495 13.7856C16.0814 13.912 16.2423 13.9751 16.4323 13.9751C16.6169 13.9751 16.7752 13.912 16.907 13.7856C17.0389 13.6592 17.1049 13.5051 17.1049 13.3231V5.16484H19.6373C20.1912 5.1699 20.6661 5.36197 21.0618 5.74108C21.4575 6.12523 21.6553 6.58522 21.6553 7.12101C21.6553 7.65174 21.4575 8.10919 21.0618 8.49335C20.6661 8.8775 20.1912 9.07211 19.6373 9.07716H19.2417C19.0517 9.07716 18.8908 9.14034 18.7588 9.26671C18.6269 9.39307 18.5609 9.54725 18.5609 9.72921C18.5609 9.87581 18.6084 10.0072 18.7034 10.1235L21.5762 13.7173C21.687 13.8639 21.8347 13.9473 22.0193 13.9676C22.2092 13.9928 22.3781 13.9499 22.5258 13.8387C22.6736 13.7325 22.7606 13.5885 22.787 13.4065C22.8081 13.2296 22.7632 13.0704 22.6525 12.9288L20.5157 10.2524C21.2438 10.0603 21.84 9.67615 22.3042 9.0999C22.7737 8.51862 23.0086 7.85899 23.0086 7.12101C23.0086 6.23138 22.6815 5.46812 22.0272 4.83124C21.3677 4.19435 20.5737 3.87338 19.6452 3.86832H16.4323ZM34.0198 12.8151C32.8961 12.8151 31.9358 12.4335 31.1392 11.6702C30.3426 10.907 29.9442 9.987 29.9442 8.91036C29.9442 7.83877 30.3426 6.92135 31.1392 6.15809C31.9358 5.39483 32.8961 5.01321 34.0198 5.01321C35.1382 5.01321 36.0959 5.39483 36.8925 6.15809C37.6891 6.92135 38.0875 7.83877 38.0875 8.91036C38.0875 9.987 37.6891 10.907 36.8925 11.6702C36.0959 12.4335 35.1382 12.8151 34.0198 12.8151ZM34.0198 3.71667C32.5216 3.71667 31.2421 4.22467 30.1817 5.24067C29.1212 6.25666 28.5909 7.47989 28.5909 8.91036C28.5909 10.3459 29.1212 11.5716 30.1817 12.5876C31.2421 13.6036 32.5216 14.1116 34.0198 14.1116C35.513 14.1116 36.7896 13.6036 37.8501 12.5876C38.9105 11.5716 39.4408 10.3459 39.4408 8.91036C39.4408 7.47989 38.9105 6.25666 37.8501 5.24067C36.7896 4.22467 35.513 3.71667 34.0198 3.71667ZM54.9629 3.88349C54.8099 3.8481 54.6622 3.86327 54.5198 3.92897C54.3773 3.98964 54.2718 4.0882 54.2032 4.22467L50.4125 11.4655L46.6217 4.22467C46.5532 4.0882 46.4477 3.98964 46.3052 3.92897C46.1627 3.86327 46.0151 3.8481 45.8621 3.88349C45.7091 3.91886 45.5823 3.99469 45.4822 4.11095C45.3872 4.23226 45.3397 4.36621 45.3397 4.51279V13.3231C45.3397 13.5051 45.4057 13.6592 45.5376 13.7856C45.6695 13.912 45.8303 13.9751 46.0203 13.9751C46.205 13.9751 46.3632 13.912 46.4951 13.7856C46.6271 13.6592 46.693 13.5051 46.693 13.3231V7.26506L49.7715 13.1411C49.7925 13.1917 49.8136 13.2346 49.8347 13.27C49.9666 13.4772 50.1566 13.5809 50.4045 13.5809C50.663 13.5809 50.8583 13.4772 50.9901 13.27L51.006 13.2397L51.0139 13.2169L54.1319 7.26506V13.3231C54.1319 13.5051 54.1979 13.6592 54.3298 13.7856C54.4618 13.912 54.6199 13.9751 54.8047 13.9751C54.9945 13.9751 55.1554 13.912 55.2874 13.7856C55.4193 13.6592 55.4852 13.5051 55.4852 13.3231V4.51279C55.4852 4.36621 55.4378 4.23226 55.3428 4.11095C55.2425 3.99469 55.1159 3.91886 54.9629 3.88349ZM66.8843 12.8151C65.7605 12.8151 64.8003 12.4335 64.0036 11.6702C63.207 10.907 62.8086 9.987 62.8086 8.91036C62.8086 7.83877 63.207 6.92135 64.0036 6.15809C64.8003 5.39483 65.7605 5.01321 66.8843 5.01321C68.0028 5.01321 68.9603 5.39483 69.7569 6.15809C70.5536 6.92135 70.9519 7.83877 70.9519 8.91036C70.9519 9.987 70.5536 10.907 69.7569 11.6702C68.9603 12.4335 68.0028 12.8151 66.8843 12.8151ZM66.8843 3.71667C65.3859 3.71667 64.1065 4.22467 63.046 5.24067C61.9856 6.25666 61.4554 7.47989 61.4554 8.91036C61.4554 10.3459 61.9856 11.5716 63.046 12.5876C64.1065 13.6036 65.3859 14.1116 66.8843 14.1116C68.3773 14.1116 69.6541 13.6036 70.7146 12.5876C71.775 11.5716 72.3052 10.3459 72.3052 8.91036C72.3052 7.47989 71.775 6.25666 70.7146 5.24067C69.6541 4.22467 68.3773 3.71667 66.8843 3.71667ZM78.8848 3.86832C78.6948 3.86832 78.5339 3.9315 78.4019 4.05787C78.27 4.18424 78.2042 4.33588 78.2042 4.51279V13.3231C78.2042 13.5051 78.27 13.6592 78.4019 13.7856C78.5339 13.912 78.6948 13.9751 78.8848 13.9751C79.0694 13.9751 79.2277 13.912 79.3595 13.7856C79.4914 13.6592 79.5574 13.5051 79.5574 13.3231V9.93393H82.9523C83.1423 9.93393 83.3032 9.87074 83.4352 9.74438C83.5671 9.61296 83.6331 9.45879 83.6331 9.28188C83.6331 9.0999 83.5671 8.94574 83.4352 8.81938C83.3032 8.69301 83.1423 8.62983 82.9523 8.62983H79.5574V5.16484H84.2186C84.4032 5.16484 84.5616 5.10166 84.6935 4.97529C84.8253 4.84893 84.8912 4.69476 84.8912 4.51279C84.8912 4.33588 84.8253 4.18424 84.6935 4.05787C84.5616 3.9315 84.4032 3.86832 84.2186 3.86832H78.8848ZM91.4708 3.86832C91.2809 3.86832 91.1199 3.9315 90.988 4.05787C90.8562 4.18424 90.7903 4.33588 90.7903 4.51279V13.3231C90.7903 13.5051 90.8562 13.6592 90.988 13.7856C91.1199 13.912 91.2809 13.9751 91.4708 13.9751C91.6554 13.9751 91.8138 13.912 91.9457 13.7856C92.0775 13.6592 92.1434 13.5051 92.1434 13.3231V9.93393H95.5386C95.7285 9.93393 95.8893 9.87074 96.0212 9.74438C96.1532 9.61296 96.2191 9.45879 96.2191 9.28188C96.2191 9.0999 96.1532 8.94574 96.0212 8.81938C95.8893 8.69301 95.7285 8.62983 95.5386 8.62983H92.1434V5.16484H96.8047C96.9893 5.16484 97.1477 5.10166 97.2796 4.97529C97.4115 4.84893 97.4775 4.69476 97.4775 4.51279C97.4775 4.33588 97.4115 4.18424 97.2796 4.05787C97.1477 3.9315 96.9893 3.86832 96.8047 3.86832H91.4708Z" fill="#3B3C3F"/>
<path d="M1.14335 19.3857L1.12436 19.3888L1.10853 19.3857C1.07054 19.3857 1.03889 19.3989 1.01356 19.4251C0.98613 19.4515 0.972412 19.4818 0.972412 19.5161V23.0403C0.972412 23.0767 0.98613 23.107 1.01356 23.1312C1.03889 23.1576 1.07054 23.1706 1.10853 23.1706C1.14652 23.1706 1.17817 23.1576 1.20349 23.1312C1.23093 23.107 1.24465 23.0767 1.24465 23.0403V19.6466H2.14998C2.44121 19.6486 2.68917 19.7497 2.89389 19.9498C3.10069 20.148 3.2041 20.3866 3.2041 20.6657C3.2041 20.9425 3.10069 21.1812 2.89389 21.3813C2.68917 21.5795 2.44227 21.6795 2.15316 21.6816L2.04868 21.6846C2.01069 21.6846 1.97799 21.6967 1.95056 21.7209C1.92523 21.7473 1.91257 21.7776 1.91257 21.8119C1.91257 21.8484 1.92523 21.8798 1.95056 21.906C1.97799 21.9303 2.01069 21.9424 2.04868 21.9424H2.15632C2.5193 21.9383 2.82951 21.8119 3.08698 21.5633C3.34444 21.3125 3.47317 21.0133 3.47317 20.6657C3.47317 20.3158 3.34444 20.0155 3.08698 19.7649C2.8274 19.5161 2.51507 19.3897 2.14998 19.3857H1.14335ZM10.7963 19.3857C10.7583 19.3857 10.7266 19.3989 10.7013 19.4251C10.6739 19.4495 10.6602 19.4798 10.6602 19.5161V23.0403C10.6602 23.0767 10.6739 23.107 10.7013 23.1312C10.7266 23.1576 10.7583 23.1706 10.7963 23.1706C10.8343 23.1706 10.8659 23.1576 10.8912 23.1312C10.9187 23.107 10.9324 23.0767 10.9324 23.0403V19.6466H12.0783C12.3379 19.6486 12.5605 19.7385 12.7462 19.9164C12.9298 20.0944 13.0217 20.3087 13.0217 20.5594C13.0217 20.8082 12.9298 21.0214 12.7462 21.1994C12.5626 21.3773 12.3411 21.4683 12.0815 21.4723H11.92C11.8821 21.4723 11.8504 21.4844 11.8251 21.5087C11.7976 21.5349 11.7839 21.5663 11.7839 21.6028C11.7839 21.633 11.7934 21.6593 11.8124 21.6816L12.9615 23.1191C12.9847 23.1475 13.0143 23.1646 13.0501 23.1706C13.0881 23.1747 13.1219 23.1657 13.1514 23.1435C13.181 23.1211 13.1979 23.0928 13.2021 23.0585C13.2084 23.022 13.2 22.9897 13.1768 22.9615L12.1891 21.724C12.4993 21.6958 12.761 21.5703 12.9742 21.348C13.1873 21.1236 13.2939 20.8607 13.2939 20.5594C13.2939 20.238 13.1746 19.963 12.9362 19.7344C12.6998 19.506 12.4139 19.3897 12.0783 19.3857H10.7963ZM22.4214 22.9615C21.9338 22.9615 21.5181 22.7966 21.1742 22.4671C20.8301 22.1375 20.6581 21.7393 20.6581 21.2722C20.6581 20.8071 20.8301 20.4088 21.1742 20.0771C21.5181 19.7476 21.9338 19.5829 22.4214 19.5829C22.9068 19.5829 23.3225 19.7476 23.6685 20.0771C24.0126 20.4088 24.1846 20.8071 24.1846 21.2722C24.1846 21.7393 24.0126 22.1375 23.6685 22.4671C23.3225 22.7966 22.9068 22.9615 22.4214 22.9615ZM22.4214 19.322C21.8599 19.322 21.3799 19.5132 20.981 19.8953C20.5842 20.2754 20.3859 20.7343 20.3859 21.2722C20.3859 21.8099 20.5842 22.27 20.981 22.6521C21.3799 23.0321 21.8599 23.2222 22.4214 23.2222C22.9826 23.2222 23.4617 23.0321 23.8585 22.6521C24.2573 22.27 24.4567 21.8099 24.4567 21.2722C24.4567 20.7343 24.2573 20.2754 23.8585 19.8953C23.4617 19.5132 22.9826 19.322 22.4214 19.322ZM31.8115 19.3857C31.7735 19.3857 31.7419 19.3989 31.7165 19.4251C31.6891 19.4495 31.6755 19.4798 31.6755 19.5161V19.5222V23.0403C31.6755 23.0767 31.6891 23.107 31.7165 23.1312C31.7419 23.1576 31.7735 23.1706 31.8115 23.1706C31.8496 23.1706 31.8812 23.1576 31.9064 23.1312C31.934 23.107 31.9476 23.0767 31.9476 23.0403V19.6466H33.1505C33.617 19.6506 34.0158 19.8124 34.3471 20.1318C34.6784 20.4492 34.844 20.8313 34.844 21.2782C34.844 21.723 34.6795 22.1051 34.3502 22.4247C34.0189 22.7441 33.6201 22.9059 33.1538 22.9099H32.8846C32.8466 22.9099 32.815 22.923 32.7896 22.9494C32.7622 22.9736 32.7486 23.0039 32.7486 23.0403C32.7486 23.0767 32.7622 23.107 32.7896 23.1312C32.815 23.1576 32.8466 23.1706 32.8846 23.1706H33.1157C33.1241 23.1706 33.1346 23.1706 33.1475 23.1706C33.1748 23.1686 33.198 23.1636 33.217 23.1556C33.198 23.1657 33.1791 23.1706 33.1601 23.1706C33.6982 23.1646 34.1593 22.9765 34.5434 22.6066C34.9254 22.2366 35.1163 21.7938 35.1163 21.2782C35.1163 20.7607 34.9243 20.3167 34.5402 19.9469C34.156 19.5768 33.6928 19.3897 33.1505 19.3857H31.8115ZM45.4941 19.3888C45.4562 19.3888 45.4235 19.402 45.3961 19.4282C45.3708 19.4545 45.358 19.4848 45.358 19.5192V21.6299C45.3538 21.9939 45.2155 22.3043 44.9434 22.5612C44.6711 22.8178 44.3462 22.9462 43.9684 22.9462C43.5885 22.9462 43.2625 22.8178 42.9902 22.5612C42.718 22.3023 42.5808 21.991 42.5787 21.627V19.5192C42.5787 19.4848 42.565 19.4545 42.5376 19.4282C42.5123 19.402 42.4805 19.3888 42.4426 19.3888C42.4047 19.3888 42.3729 19.402 42.3476 19.4282C42.3202 19.4545 42.3064 19.4848 42.3064 19.5192V21.6299C42.3107 22.0647 42.4753 22.4357 42.8003 22.743C43.1231 23.0525 43.5126 23.2071 43.9684 23.2071C44.4201 23.2071 44.8082 23.0534 45.1334 22.7461C45.4583 22.4388 45.6228 22.0677 45.6272 21.633V19.5192C45.6272 19.4848 45.6144 19.4545 45.5891 19.4282C45.5617 19.402 45.5301 19.3888 45.4941 19.3888ZM56.0682 22.5247C55.7327 22.8158 55.3381 22.9615 54.8844 22.9615C54.3969 22.9615 53.9812 22.7966 53.6371 22.4671C53.2932 22.1375 53.1212 21.7393 53.1212 21.2722C53.1212 20.8071 53.2932 20.4088 53.6371 20.0771C53.9812 19.7476 54.3969 19.5829 54.8844 19.5829C55.3064 19.5829 55.68 19.7113 56.005 19.968C56.0345 19.9924 56.0682 20.0025 56.1063 19.9984C56.1421 19.9944 56.1727 19.9792 56.198 19.9529C56.2212 19.9245 56.2308 19.8922 56.2265 19.8559C56.2244 19.8214 56.2086 19.7922 56.1791 19.7678C55.8034 19.4706 55.3719 19.322 54.8844 19.322C54.323 19.322 53.8429 19.5132 53.444 19.8953C53.0473 20.2754 52.8489 20.7343 52.8489 21.2722C52.8489 21.8099 53.0473 22.27 53.444 22.6521C53.8429 23.0321 54.323 23.2222 54.8844 23.2222C55.4077 23.2222 55.8635 23.0534 56.2518 22.7158C56.2792 22.6914 56.2941 22.6612 56.2962 22.6248C56.2983 22.5903 56.2867 22.5591 56.2614 22.5307C56.2361 22.5045 56.2043 22.4903 56.1664 22.4883C56.1306 22.4883 56.0979 22.5004 56.0682 22.5247ZM63.6225 19.3857C63.5844 19.3857 63.5528 19.3989 63.5275 19.4251C63.5001 19.4495 63.4863 19.4798 63.4863 19.5161C63.4863 19.5526 63.5001 19.5838 63.5275 19.6102C63.5528 19.6344 63.5844 19.6466 63.6225 19.6466H64.7779V23.0403C64.7779 23.0767 64.7915 23.107 64.8191 23.1312C64.8444 23.1576 64.876 23.1706 64.9141 23.1706C64.952 23.1706 64.9836 23.1576 65.0089 23.1312C65.0364 23.107 65.05 23.0767 65.05 23.0403V19.6466H66.2087C66.2445 19.6466 66.2761 19.6344 66.3037 19.6102C66.329 19.5838 66.3416 19.5526 66.3416 19.5161C66.3416 19.4798 66.329 19.4495 66.3037 19.4251C66.2761 19.3989 66.2445 19.3857 66.2087 19.3857H63.6225ZM73.5698 19.3827C73.5317 19.3827 73.5001 19.3958 73.4748 19.4222C73.4474 19.4464 73.4337 19.4767 73.4337 19.5132V23.0372C73.4337 23.0736 73.4474 23.104 73.4748 23.1282C73.5001 23.1545 73.5317 23.1677 73.5698 23.1677C73.6077 23.1677 73.6393 23.1545 73.6648 23.1282C73.6922 23.104 73.706 23.0736 73.706 23.0372V19.5132C73.706 19.4767 73.6922 19.4464 73.6648 19.4222C73.6393 19.3958 73.6077 19.3827 73.5698 19.3827ZM82.9917 22.9615C82.5042 22.9615 82.0885 22.7966 81.7444 22.4671C81.4005 22.1375 81.2285 21.7393 81.2285 21.2722C81.2285 20.8071 81.4005 20.4088 81.7444 20.0771C82.0885 19.7476 82.5042 19.5829 82.9917 19.5829C83.477 19.5829 83.8927 19.7476 84.2389 20.0771C84.5828 20.4088 84.7549 20.8071 84.7549 21.2722C84.7549 21.7393 84.5828 22.1375 84.2389 22.4671C83.8927 22.7966 83.477 22.9615 82.9917 22.9615ZM82.9917 19.322C82.4303 19.322 81.9502 19.5132 81.5513 19.8953C81.1546 20.2754 80.9562 20.7343 80.9562 21.2722C80.9562 21.8099 81.1546 22.27 81.5513 22.6521C81.9502 23.0321 82.4303 23.2222 82.9917 23.2222C83.553 23.2222 84.0321 23.0321 84.4288 22.6521C84.8277 22.27 85.027 21.8099 85.027 21.2722C85.027 20.7343 84.8277 20.2754 84.4288 19.8953C84.0321 19.5132 83.553 19.322 82.9917 19.322ZM95.3353 19.3857C95.2972 19.3857 95.2656 19.3978 95.2403 19.4222C95.2129 19.4484 95.1992 19.4798 95.1992 19.5161V22.6703L92.4864 19.4343C92.4462 19.3857 92.3966 19.3716 92.3376 19.3917C92.2763 19.4121 92.2457 19.4535 92.2457 19.5161V23.0403C92.2457 23.0747 92.2594 23.1049 92.2868 23.1312C92.3121 23.1556 92.3439 23.1677 92.3818 23.1677C92.4197 23.1677 92.4515 23.1556 92.4768 23.1312C92.5042 23.1049 92.518 23.0747 92.518 23.0403V19.883L95.2308 23.1191C95.271 23.1677 95.3205 23.1818 95.3795 23.1616C95.4408 23.1414 95.4714 23.1009 95.4714 23.0403V19.5161C95.4714 19.4798 95.4586 19.4484 95.4333 19.4222C95.406 19.3978 95.3732 19.3857 95.3353 19.3857Z" fill="#3B3C3F"/>
</svg>
