<svg width="1300" height="440" viewBox="0 0 1300 440" fill="none" xmlns="http://www.w3.org/2000/svg">
<path fill-rule="evenodd" clip-rule="evenodd" d="M0.0102152 14.809C0.0102152 26.306 0.0101791 30.5 0.0102309 33.456C0.0102856 41.5 0.0100252 45.1875 0.0101992 49.5C0.0102831 52 0.0102256 54.3125 0.0102408 57C0.0102794 62.5 0.0272153 60.323 0.0102152 70.5C-0.0127844 84.101 0.0102447 87 0.0102226 93.5C0.0102731 101.625 0.0102529 96.5625 0.0102633 100.5C0.0102714 108.87 0.0102152 115.624 0.0102152 129.635V146H14.0101L14.1021 130.75C14.2401 107.792 13.8601 109.677 18.5101 108.87C31.144 106.675 42.2709 98.688 46.8878 88.5C48.1338 85.75 49.6158 82.647 50.1818 81.603C51.4818 79.206 51.5338 63.358 50.2478 61.723C49.7188 61.05 48.9778 59.216 48.6028 57.646C47.7088 53.911 41.1799 45.13 36.8299 41.812C31.9629 38.099 25.332 35.211 19.5101 34.266L14.5101 33.456L13.9621 0H0.0102152V14.809ZM37.0099 1.413C49.4028 6.107 57.3468 11.114 65.5347 19.392C76.8447 30.826 83.4766 43.376 85.9026 57.932C87.1886 65.652 89.0036 68.28 89.0226 62.45C89.0356 58.367 92.4775 46.509 95.6835 39.5C103.116 23.25 119.635 8.397 137.509 1.892C142.45 0.0929999 141.87 0.072 88.0096 0.08C41.6519 0.087 34.0329 0.286 37.0099 1.413ZM184.009 0.971C209.751 9.204 230.625 33.398 234.51 59.5C236.06 69.92 236.868 60.185 236.938 30.25L237.008 0L209.259 0.086C193.842 0.134 182.62 0.527 184.009 0.971ZM257.508 0.695C261.367 1.587 274.558 8.377 279.508 12.018C291.095 20.542 298.56 30.302 304.731 45C306.668 49.613 308.913 60.029 308.988 64.75C308.999 65.438 309.458 66 310.008 66C310.558 66 311.008 64.791 311.008 63.314C311.008 54.63 318.972 35.316 326.486 25.778C334.496 15.609 350.45 4.407 361.787 0.991C363.283 0.541 339.983 0.185 310.008 0.202C280.033 0.218 256.408 0.44 257.508 0.695ZM531.506 52.5L384.007 53.013V89.987L531.506 90.5V145.5L384.007 146.013L384.002 171.5L335.652 220.006L359.555 243.944C372.702 257.11 383.611 267.729 383.798 267.542C383.985 267.356 384.096 256.807 384.045 244.102L383.953 221H458.007V294H433.007V368H409.007V294H375.933L237.017 433.5L237.008 420.556L299.258 358.268C333.495 324.01 361.657 295.535 361.84 294.99C362.024 294.446 361.352 294 360.348 294C359.297 294 348.229 283.714 334.287 269.779L310.051 245.558L286.001 269.779C268.048 287.861 261.35 294 259.576 294C257.886 294 254.294 296.956 247.12 304.25L237.038 314.5L237.023 308.217C237.009 302.286 237.217 301.725 240.735 298.217L244.462 294.5L237.008 293.879L237.021 267.5L260.514 244.023C273.436 231.111 284.008 220.307 284.008 220.015C284.008 219.723 273.433 208.916 260.508 196L237.008 172.516L236.993 127.008C236.978 84.354 236.276 71.809 234.564 83.649C234.178 86.317 232.781 91.534 231.46 95.242C229.326 101.228 228.137 103.733 223.28 112.472C221.099 116.396 208.668 128.681 203.009 132.505C193.959 138.62 179.126 144.266 169.632 145.211C168.465 145.328 174.709 145.665 183.509 145.961L199.509 146.5L0.0412151 346.5L0.0262151 381.75C0.0172152 401.137 0.304213 417 0.66321 417C1.3432 417 228.285 189.649 232.572 184.673L235.008 181.847V251.066L171.956 314.283C137.277 349.052 107.64 378.85 106.097 380.5C104.553 382.15 99.9645 386.742 95.8995 390.704C91.8355 394.666 79.0746 407.379 67.5437 418.954L46.5778 440H117.917L235.008 322.521V326.761C235.008 329.467 235.456 331 236.248 331C236.93 331 245.622 322.875 255.563 312.945L273.639 294.889L285.508 295.5L235.008 346.295V353.648C235.008 358.611 235.39 361 236.182 361C236.828 361 252.112 346.189 270.147 328.087L302.936 295.174L309.393 294.837C312.945 294.652 315.773 294.599 315.679 294.721C315.585 294.842 297.395 313.106 275.258 335.307L235.008 375.672V391.485L186.524 440H247.326L384.099 302.96L383.507 315.922L259.809 440H277.194L384.007 332.748V345.257L346.257 383.155C325.496 403.998 304.245 425.315 299.034 430.526L289.56 440H306.499L345.252 401.255C381.671 364.845 384.007 362.705 384.007 365.755V369L408.507 368.999L407.957 440H433.981L434.507 369.5L458.007 368.937V440H484.006V369H507.006V440H533.006V437.437C533.006 435.147 533.353 434.907 536.256 435.187C538.747 435.427 539.581 436.025 539.826 437.75C540.122 439.836 540.65 440 547.076 440H554.006V420H533.006V406H570.006V440H585.006V391H533.006V376H599.006V440H614.028L613.505 361.5H532.526L531.486 367.5H508.506L508.243 331.723C508.037 303.622 508.252 295.852 509.243 295.505C509.938 295.262 515.456 294.936 521.506 294.781L532.506 294.5L533.019 146H680.005L680.009 294.5L753.43 368H717.218C697.301 368 681.005 368.369 681.005 368.82C681.005 369.272 688.655 377.309 698.005 386.681C707.355 396.053 715.005 404.008 715.005 404.36C715.005 404.712 707.355 405 698.005 405C688.374 405 681.005 405.397 681.005 405.916C681.005 407.739 714.237 440 716.115 440C717.893 440 718.005 439.009 718.005 423.326V406.651L734.524 423.326C744.815 433.712 751.791 440 753.024 440C754.96 440 755.004 439.212 755.004 404.771V369.541L790.101 404.771C811.688 426.44 825.93 440 827.101 440C828.945 440 829.004 438.519 829.004 392.068V344.136L853.004 344.248V440H878.984L879.503 344.5L902.003 343.934V440H927.984L928.503 344.5H951.503L952.022 440H978.003V435H1125V440H1300V419.454L1126.77 245.5L1300 244.989V221.448L1224.75 146H1248.87C1262.14 146 1273 145.667 1273 145.26C1273 144.853 1265.02 136.528 1255.26 126.76L1237.52 109H1255.26C1265.02 109 1272.99 108.662 1272.98 108.25C1272.97 107.838 1265.1 99.625 1255.48 90L1237.99 72.5L1255.5 72.227C1265.12 72.077 1273 71.631 1273 71.237C1273 70.843 1265.02 62.528 1255.26 52.76L1237.52 35H1255.09C1264.76 35 1272.91 34.762 1273.2 34.471C1274.12 33.548 1239.66 0 1237.79 0C1236.17 0 1235.99 1.188 1235.9 12.25C1235.85 18.988 1235.88 26.188 1235.98 28.25C1236.08 30.313 1235.78 32 1235.32 32C1234.85 32 1227.29 24.8 1218.5 16C1209.71 7.2 1201.73 0 1200.76 0C1199.15 0 1199 1.388 1199 16C1199 24.8 1198.66 32 1198.24 32C1197.82 32 1190.29 24.8 1181.5 16C1169.98 4.465 1164.87 0 1163.19 0H1160.86L1161.15 15.444C1161.31 23.938 1161.22 31.119 1160.93 31.402C1160.65 31.685 1153.27 24.735 1144.52 15.958C1135.71 7.111 1127.82 0 1126.82 0C1125.1 0 1125 3.338 1124.76 71.686L1124.5 143.372L1110.35 114.936C1102.57 99.296 1094.65 83.35 1092.76 79.5C1087.74 69.271 1063.65 21.065 1058.04 10C1054.62 3.256 1052.63 0.41 1051.19 0.19C1049.42 -0.078 1044.49 9.222 1013.58 71.155L978.003 142.43V132.215C978.003 125.864 977.613 122 976.972 122C976.404 122 975.654 122.788 975.304 123.75C974.953 124.713 973.002 127.525 970.968 130C968.826 132.605 966.57 136.921 965.608 140.25L963.947 146H956.475C949.393 146 949.003 145.883 949.004 143.75C949.005 142.512 950.749 139.536 952.88 137.135C961.164 127.805 961.296 114.949 953.211 105.208C946.764 97.441 946.911 93.759 953.972 86.144C958.184 81.601 960.322 73.401 958.929 67.128C957.968 62.799 954.031 55.768 951.298 53.5C949.395 51.921 947.889 46.939 948.612 44.618C948.975 43.453 950.942 40.475 952.984 38C958.357 31.485 960.181 25.365 958.887 18.199C957.955 13.037 953.778 5 952.028 5C951.641 5 950.811 3.875 950.185 2.5C949.125 0.174 948.551 0 941.916 0H934.786L935.434 2.583C936.226 5.736 939.843 11.527 943.379 15.302C947.258 19.443 947.018 24.945 942.753 29.602C932.403 40.902 932.364 53.351 942.643 63.971C947.408 68.893 947.353 74.02 942.48 79.326C932.344 90.362 932.388 102.407 942.601 113.042C945.392 115.948 946.003 117.355 946.003 120.878C946.003 124.35 945.38 125.832 942.753 128.617C938.53 133.092 935.003 139.745 935.003 143.235C935.003 145.992 934.982 146 928.003 146H921.003V202H976.003V238H920.972L921.503 294.5L927.003 295.133V343H904.039L903.503 294.5L885.003 293.925V238H829.004V202H885.003V174C885.003 146.667 885.051 146 887.003 146C888.212 146 889.003 145.333 889.003 144.314C889.003 143.387 890.734 140.575 892.85 138.064C898.662 131.167 900.401 127.236 900.397 121C900.394 114.817 898.106 109.608 892.955 104.056C891.034 101.984 889.571 99.194 889.285 97.056C888.883 94.049 889.42 92.728 892.769 88.5C898.825 80.853 900.409 77.2 900.366 70.987C900.325 65.166 898.753 61.869 892.028 53.5C887.964 48.442 888.245 44.022 892.955 38.944C898.176 33.316 900.403 28.193 900.361 21.906C900.323 16.078 898.922 12.916 892.503 4.165C889.511 0.0869999 889.485 0.076 882.734 0.038L875.965 0L876.622 2.75C877.333 5.724 878.92 9.198 879.935 10C882.127 11.734 887.003 19.771 887.003 21.65C887.003 24.218 885.035 29 883.978 29C882.517 29 877.957 36.791 876.452 41.859C875.011 46.712 875.022 47.546 876.589 52.316C877.526 55.167 880.14 59.722 882.398 62.437C885.743 66.461 886.503 68.138 886.503 71.5C886.503 74.862 885.743 76.539 882.398 80.563C880.14 83.278 877.529 87.825 876.595 90.666C875.033 95.423 875.023 96.259 876.469 101.235C877.97 106.397 879.48 109.056 883.177 113.043C887.886 118.121 888.121 122.278 884 127.612C882.348 129.751 880.314 132.391 879.479 133.48C878.644 134.568 877.213 137.831 876.299 140.73L874.638 146H867.789C858.404 146 857.779 143.748 864.979 135.865C868.158 132.384 871.003 125.339 871.003 120.948C871.003 116.482 868.361 110.394 864.064 104.958C858.456 97.864 858.513 94.268 864.352 86.748C873.496 74.973 872.885 64.568 862.418 53.805C861.511 52.873 860.542 50.078 860.261 47.594C859.792 43.431 860.076 42.691 863.886 38.14C868.2 32.987 871.003 26.651 871.003 22.052C871.003 17.661 868.158 10.616 864.979 7.135C863.349 5.349 861.545 3.013 860.973 1.944C860.094 0.302 858.842 0 852.901 0C846.069 0 845.889 0.0639999 846.565 2.25C847.848 6.399 850.772 11.483 853.036 13.5C854.27 14.6 855.89 16.941 856.635 18.702C858.249 22.517 857.438 25.262 853.254 30.139C843.762 41.201 843.792 53.139 853.337 63.442C858.954 69.506 858.982 72.706 853.474 79.5C843.833 91.391 843.505 102.706 852.538 111.793C858.505 117.797 858.797 123.118 853.47 128.779C850.132 132.326 846.004 140.51 846.004 143.582C846.004 145.936 845.795 146 838.063 146C833.695 146 829.839 145.541 829.492 144.981C829.146 144.42 831.171 141.06 833.994 137.513C836.816 133.966 839.548 129.59 840.065 127.789C842.246 120.184 840.565 111.872 835.826 106.829C834.105 104.998 831.868 102.15 830.855 100.5C829.02 97.513 829.011 97.579 828.94 115.5C828.874 132.123 828.767 133.156 827.54 129C826.81 126.525 825.663 122.702 824.993 120.504C823.132 114.401 815.348 101.538 809.929 95.609C800.198 84.961 785.539 76.003 773.988 73.647C770.761 72.989 767.805 72.135 767.419 71.749C766.647 70.976 767.088 70.813 774.829 69.014C786.975 66.192 802.213 56.492 811.158 45.89C818.757 36.882 825.852 22.673 828.329 11.5C828.572 10.4 828.826 17.6 828.892 27.5C829.011 45.459 829.016 45.493 830.865 42.5C831.884 40.85 833.682 38.643 834.861 37.595C836.04 36.547 837.004 35.278 837.004 34.774C837.004 34.27 837.652 33.209 838.445 32.417C840.338 30.523 841.399 23.119 840.569 17.585C840.103 14.475 838.434 11.224 834.922 6.585L829.937 0H608.562L679.922 71.44L606.584 144.848L597.208 135.674C592.051 130.628 586.408 124.964 584.669 123.087C582.929 121.21 580.196 118.51 578.594 117.087C576.992 115.664 574.517 113.19 573.094 111.589C571.671 109.988 567.173 105.488 563.1 101.589C559.027 97.69 554.302 92.964 552.6 91.087C550.898 89.21 548.199 86.51 546.601 85.087C545.003 83.664 542.303 80.962 540.601 79.081C538.899 77.201 536.718 74.964 535.756 74.109C534.794 73.255 534.006 72.064 534.006 71.463C534.006 70.862 537.493 66.943 541.756 62.756C546.019 58.568 561.864 42.735 576.969 27.571L604.43 0H532.039L531.506 52.5ZM906.003 2.36C906.003 4.69 910.395 12.178 912.151 12.842C913.478 13.344 917.003 20.606 917.003 22.838C917.003 23.892 916.328 25.315 915.503 26C914.678 26.685 914.003 27.865 914.003 28.622C914.003 29.38 913.614 30 913.139 30C912.664 30 911.032 31.794 909.512 33.986C903.941 42.026 904.281 52.891 910.34 60.459C914.848 66.089 917.003 69.661 917.003 71.5C917.003 73.339 914.848 76.911 910.34 82.541C903.906 90.577 903.912 101.145 910.355 109.683C912.354 112.332 914.765 115.991 915.712 117.813C917.384 121.03 917.366 121.252 915.079 125.563C913.784 128.003 912.357 130 911.906 130C910.495 130 906.268 138.325 905.685 142.25L905.129 146L917.503 145.937L920.503 141.29C922.153 138.735 924.822 134.628 926.434 132.165C930.684 125.671 931.069 118.862 927.582 111.842C926.123 108.904 923.371 104.553 921.466 102.172C919.561 99.792 918.008 97.092 918.014 96.172C918.019 95.253 920.087 91.8 922.609 88.5C928.355 80.979 930.003 77.231 930.003 71.681C930.003 66.838 928.31 61 926.905 61C926.409 61 926.003 60.479 926.003 59.842C926.003 59.206 924.153 56.286 921.891 53.355C917.181 47.25 917.187 45.138 921.93 39.736C926.608 34.408 930.003 27.16 930.003 22.5C930.003 16.539 928.319 12.342 923.281 5.75L918.886 0H912.445C906.342 0 906.003 0.124 906.003 2.36ZM965.356 1.75C965.625 2.712 966.166 4.625 966.558 6C966.951 7.375 969.012 10.587 971.138 13.139C973.264 15.69 975.003 18.229 975.003 18.782C975.003 19.334 975.678 20.045 976.503 20.362C977.777 20.851 978.003 19.363 978.003 10.469V0H971.436C965.662 0 964.927 0.211 965.356 1.75ZM1277.7 2.25C1278.69 3.488 1284.11 8.976 1289.75 14.447L1300 24.394V0H1275.91L1277.7 2.25ZM683.356 18.728C684.164 23.695 691.801 38.475 696.101 43.394C702.203 50.375 704.437 52.593 709.005 56.206C713.992 60.149 724.53 66 726.646 66C727.393 66 728.005 66.389 728.005 66.863C728.005 67.338 730.818 68.304 734.254 69.009C737.692 69.714 741.173 70.64 741.99 71.067C743.582 71.899 743.533 71.916 733.504 74.047C724.478 75.965 710.262 84.649 700.935 93.943C693.718 101.134 685.692 114.973 683.068 124.75C682.441 127.088 681.72 129 681.466 129C681.213 129 681.005 103.098 681.005 71.441C681.005 19.094 681.524 7.466 683.356 18.728ZM975.768 24.82C974.852 26.371 972.576 29.306 970.71 31.343C968.523 33.731 966.715 37.216 965.621 41.15C963.979 47.057 963.99 47.452 965.988 53.454C967.315 57.444 969.29 60.855 971.527 63.023C973.439 64.876 975.003 66.924 975.003 67.574C975.003 68.223 975.678 69.315 976.503 70C977.829 71.101 978.003 68.396 978.003 46.622C978.003 33.08 977.875 22 977.719 22C977.562 22 976.685 23.269 975.768 24.82ZM1161.14 37.75C1161.34 39.263 1161.28 46.914 1161 54.752L1160.5 69.005L1126.62 35H1160.77L1161.14 37.75ZM1198.77 52.25C1198.93 61.463 1198.69 69 1198.24 69C1197.8 69 1189.82 61.339 1180.51 51.975L1163.57 34.951L1198.5 35.5L1198.77 52.25ZM1235.69 52.852C1235.79 62.396 1235.69 70.046 1235.48 69.852C1232.99 67.626 1201 35.581 1201 35.314C1201 35.116 1208.76 35.076 1218.25 35.226L1235.5 35.5L1235.69 52.852ZM829.036 71.385L829.004 94.27L831.238 91.385C832.467 89.798 834.269 87.626 835.243 86.557C839.375 82.02 841.288 76.121 840.759 69.542C840.256 63.272 839.022 60.971 830.286 50.026C829.319 48.815 829.061 53.223 829.036 71.385ZM976.203 73.2C975.543 73.86 974.999 74.873 974.994 75.45C974.99 76.028 973.384 78.189 971.427 80.254C969.317 82.481 967.035 86.477 965.821 90.073C963.854 95.898 963.839 96.348 965.444 101.45C966.94 106.209 968.953 109.681 972.753 114.059C973.441 114.852 974.889 116.625 975.97 118L977.936 120.5L977.97 96.25C977.988 82.912 977.868 72 977.703 72C977.538 72 976.863 72.54 976.203 73.2ZM1161.09 88.25C1161.07 96.912 1161.04 104.557 1161.03 105.239C1161 106.551 1128 74.079 1128 72.737C1128 72.305 1135.45 72.075 1144.56 72.226L1161.11 72.5L1161.09 88.25ZM1198.77 89.25C1198.93 98.463 1198.7 106 1198.26 106C1197.83 106 1189.83 98.341 1180.49 88.98L1163.5 71.96L1198.5 72.5L1198.77 89.25ZM1235.77 89.25C1235.93 98.463 1235.7 106 1235.26 106C1234.83 106 1226.83 98.341 1217.49 88.98L1200.5 71.96L1235.5 72.5L1235.77 89.25ZM309.826 76.516C309.47 77.074 308.695 81.015 308.103 85.272C306.332 98.008 298.351 113.092 287.745 123.753C282.597 128.927 281.816 129.557 276.008 133.232C267.743 138.46 261.507 141.035 251.008 143.553L241.508 145.832L261.806 146L310.108 194.393L358.462 146L368.485 145.885C378.935 145.765 378.826 145.634 366.075 142.976C353.844 140.426 335.317 128.626 327.486 118.398C318.371 106.492 312.797 93.762 311.197 81.191C310.798 78.061 310.181 75.957 309.826 76.516ZM87.3766 78.5C86.7716 79.6 85.9696 82.975 85.5926 86C84.1356 97.704 75.9297 113.115 65.6247 123.5C60.0648 129.102 47.7628 137.97 45.5098 137.999C44.9598 138.007 43.2539 138.667 41.7189 139.468C39.3529 140.702 28.5 143.857 21.51 145.343C20.41 145.577 28.732 145.82 40.0039 145.884L60.4977 146L0.0102152 206.512V241.756C0.0102152 261.14 0.169214 277 0.363212 277C0.557211 277 30.133 247.525 66.0857 211.5L131.455 146L143.982 145.921C150.872 145.878 156.059 145.701 155.509 145.528C154.959 145.355 150.909 144.425 146.509 143.461C131.224 140.111 115.469 130.493 105.224 118.257C97.2115 108.686 90.7626 93.959 89.1306 81.5C88.5616 77.162 88.3296 76.765 87.3766 78.5ZM1161.15 119.75C1161.33 133.558 1161.18 142.154 1160.75 142.586C1160.56 142.774 1152.78 135.294 1143.47 125.964L1126.52 109H1161L1161.15 119.75ZM1199 126C1199 135.35 1198.66 143 1198.24 143C1197.82 143 1189.84 135.35 1180.5 126L1163.52 109H1199V126ZM1236 126.083C1236 136.593 1235.63 143.038 1235.04 142.833C1234.19 142.539 1209.23 118.135 1203.03 111.526L1200.65 109H1236V126.083ZM827.921 146.461C827.691 146.714 811.304 179.545 791.504 219.418C771.704 259.291 755.194 291.934 754.816 291.957C754.438 291.981 752.379 288.512 750.24 284.25C748.102 279.988 745.87 275.6 745.281 274.5C744.691 273.4 737.311 258.55 728.882 241.5C720.451 224.45 713.205 210.35 712.779 210.167C712.353 209.983 712.005 209.28 712.005 208.603C712.005 207.927 705.083 193.564 696.623 176.687L681.241 146H754.788C795.24 146 828.15 146.207 827.921 146.461ZM1125 219.5C1125 259.925 1124.88 293 1124.73 293C1124.58 293 1091.46 259.925 1051.12 219.5L977.774 146H1125V219.5ZM570.685 183.654C570.312 184.028 570.006 200.41 570.006 220.06C570.006 251.715 570.186 255.855 571.588 256.393C573.967 257.306 640.31 257.093 641.768 256.168C642.755 255.541 642.973 247.515 642.768 219.433L642.505 183.5L606.935 183.238C587.371 183.093 571.059 183.281 570.685 183.654ZM482.006 368H459.007V331.583C459.007 308.721 459.371 295.043 459.986 294.833C460.524 294.65 465.699 294.641 471.485 294.814L482.006 295.129V368ZM1123.75 294.881C1124.49 294.951 1125 296.43 1125 298.5V302H976.003V308.893C976.003 314.256 976.354 315.921 977.585 316.393C978.455 316.727 1011.98 317 1052.08 317H1125V330.987L976.503 331.5L975.903 343H953.003V295.012L1032.75 294.756C1105.9 294.521 1120.19 294.541 1123.75 294.881ZM291.443 349C261.8 378.7 237.425 403 237.277 403C237.129 403 237.008 400.333 237.008 397.073V391.147L332.508 295.083L345.34 295L291.443 349ZM878.003 343H854.004V295H878.003V343ZM531.892 302.75C531.54 305.078 532.026 315.223 532.529 316.038C532.9 316.638 556.819 317 596.065 317H659.005V440H672.977L673.241 372.25C673.386 334.988 673.344 303.938 673.148 303.25C672.867 302.265 657.855 302 602.398 302C563.683 302 531.955 302.337 531.892 302.75ZM531.839 331.979C531.656 332.518 531.657 335.893 531.841 339.479L532.177 346H628.005V440H643.005V331H587.589C552.316 331 532.052 331.356 531.839 331.979ZM1125 361H978.003V346H1125V361ZM355.507 403.613C340.658 418.66 326.489 433.003 324.021 435.486L319.534 440H336.21L383.853 392.446L384.009 385.973C384.22 377.186 384.128 375.979 383.257 376.127C382.844 376.197 370.357 388.565 355.507 403.613ZM1125 391H978.003V376H1125V391ZM366.209 422.537L348.912 440H366.257L384.007 421.631V413.316C384.007 408.742 383.894 405.017 383.757 405.037C383.62 405.058 375.723 412.933 366.209 422.537ZM1125 420H978.003V406H1125V420ZM381.007 437.5L378.658 440H381.333C383.519 440 384.007 439.543 384.007 437.5C384.007 436.125 383.86 435 383.681 435C383.502 435 382.299 436.125 381.007 437.5Z" fill="#2B2B2B"/>
</svg>
